<svg width="512" height="512" viewBox="0 0 512 512" fill="none" xmlns="http://www.w3.org/2000/svg">
  <rect width="512" height="512" rx="116" fill="#0B0B0B"/>
  <rect x="22" y="22" width="468" height="468" rx="96" stroke="#2A2A2A" stroke-width="3"/>

  <g fill="#FFFFFF">
    <circle cx="256" cy="256" r="20"/>
    <path d="M256 120C300 120 336 156 336 200C336 216 330 230 320 242L274 224C282 216 288 206 288 194C288 171 269 152 246 152L256 120Z"/>
    <path d="M392 256C392 300 356 336 312 336C296 336 282 330 270 320L288 274C296 282 306 288 318 288C341 288 360 269 360 246L392 256Z"/>
    <path d="M256 392C212 392 176 356 176 312C176 296 182 282 192 270L238 288C230 296 224 306 224 318C224 341 243 360 266 360L256 392Z"/>
    <path d="M120 256C120 212 156 176 200 176C216 176 230 182 242 192L224 238C216 230 206 224 194 224C171 224 152 243 152 266L120 256Z"/>
  </g>
</svg>
